<?xml version="1.0" encoding="utf-8"?>
<!-- Generator: Adobe Illustrator 23.0.4, SVG Export Plug-In . SVG Version: 6.00 Build 0)  -->
<svg version="1.1" id="Layer_1" xmlns="http://www.w3.org/2000/svg" xmlns:xlink="http://www.w3.org/1999/xlink" x="0px" y="0px"
	 viewBox="0 0 512 512" style="enable-background:new 0 0 512 512;" xml:space="preserve">
<style type="text/css">
	.st0{clip-path:url(#SVGID_2_);}
	.st1{fill:#2DACD3;stroke:#444444;stroke-width:17;}
	.st2{fill:#17A2CC;}
	.st3{fill:#444444;}
</style>
<g>
	<defs>
		<rect id="SVGID_1_" width="512" height="512"/>
	</defs>
	<clipPath id="SVGID_2_">
		<use xlink:href="#SVGID_1_"  style="overflow:visible;"/>
	</clipPath>
	<g class="st0">
		<path class="st1" d="M348.6,102.6c-24.1-15-46.8-20.9-69.5-35.9c-14.1-9.5-33.6-32.2-49.9-51.8C226,46.3,216.4,59,205.5,68
			c-23.2,18.2-37.7,23.6-57.7,34.5c-16.8,8.6-108.1,63.1-108.1,180.3s98.5,203.4,208,203.4s204.3-79.5,204.3-199.8
			C452.1,166.1,363.1,111.6,348.6,102.6z"/>
		<path class="st2" d="M283.7,76.9c-23.5-14.3-35.3-30.9-46.6-43.2c-1.9-2.1-3.8-4.5-3.8-4.5c0.6,4.1,33.4,52.6,88.7,83.3
			c53,29.4,112.8,104.5,83.5,212c-16.1,59-53,119-153.2,155.6c30.4-0.1,56-8.6,67.4-12.3c14.5-4.2,51.2-22.6,74.1-47.5
			c12.8-13.7,50-48.9,52.3-135.4c2.2-82-53.5-154.2-109.9-182.7C315.4,91.9,301,85.5,283.7,76.9z"/>
		<path class="st3" d="M211.7,378.6c-9.1,2-35.2,12.6-24.2-0.5c13.7-17.1,17.6-50.9-8.6-78.1c-10.6-9-26.7-6.5-26.2,7.6
			c7.1,27.2,5.5,48.4-8.6,57.4C85.6,402.2,97.4,505.5,182,512c28.2,0,40.3-3.7,66-12.6c14.6-5,16.6-19.6,5.5-27.2
			c17.1-9.1,19.1-24.2,3-33.2c16-13.6,17.8-22.2,0-35.8l67-16.1c22.7-6,13.1-36.8-5-32.2L211.7,378.6z"/>
		<path class="st3" d="M145.3,139.3c-5.1,2.2-7.4,8.1-5.2,13.2c2.2,5.1,8.1,7.4,13.2,5.2L145.3,139.3z M234.9,156.5
			c5.2,1.8,10.9-0.9,12.8-6.1c1.8-5.2-0.9-10.9-6.1-12.8L234.9,156.5z M153.3,157.7c13.7-5.9,25.5-9.1,37.9-9.5
			c12.5-0.4,26.2,2.1,43.7,8.3l6.7-18.8c-19.1-6.8-35.4-9.9-51-9.4c-15.7,0.5-30.1,4.5-45.3,11.1L153.3,157.7z"/>
		<path class="st3" d="M294.4,183.6c-5.2,1.9-7.8,7.7-5.9,12.8c1.9,5.2,7.7,7.8,12.8,5.9L294.4,183.6z M379.9,207.6
			c5,2.3,11,0,13.2-5c2.3-5,0-11-5-13.2L379.9,207.6z M301.3,202.4c13.6-5,25.6-6.9,37.8-6.1c12.3,0.8,25.3,4.5,40.7,11.4l8.2-18.3
			c-16.8-7.5-32.2-12-47.5-13.1c-15.4-1-30.3,1.5-46.1,7.3L301.3,202.4z"/>
		<path class="st3" d="M214.2,314.6c-5.5,0.8-9.2,5.9-8.4,11.4c0.8,5.5,5.9,9.2,11.4,8.4L214.2,314.6z M294.4,348.9
			c4.4,3.3,10.7,2.3,14-2.1c3.3-4.4,2.3-10.7-2.1-14L294.4,348.9z M217.1,334.4c34.2-5.2,57.3-0.2,77.2,14.5l11.9-16.1
			c-25.3-18.7-54.2-23.9-92.1-18.2L217.1,334.4z"/>
		<ellipse class="st3" cx="193.5" cy="214.4" rx="25.5" ry="31.7"/>
		<ellipse class="st3" cx="329.2" cy="225.9" rx="25.5" ry="31.7"/>
	</g>
</g>
</svg>
