<svg width="26" height="34" viewBox="0 0 26 34" fill="none" xmlns="http://www.w3.org/2000/svg">
<path d="M18.3503 7.18089C15.9569 4.81174 13.6808 2.54667 13.0023 0C12.3361 2.54667 10.0414 4.81174 7.64805 7.18089C4.06418 10.7377 -0.000821813 14.7658 -0.000821813 20.8142C-0.0385306 22.5321 0.269846 24.2402 0.906214 25.8383C1.54258 27.4363 2.49413 28.8922 3.70502 30.1204C4.91592 31.3486 6.36178 32.3244 7.95777 32.9906C9.55377 33.6568 11.2678 34 12.9992 34C14.7306 34 16.4446 33.6568 18.0406 32.9906C19.6366 32.3244 21.0824 31.3486 22.2933 30.1204C23.5042 28.8922 24.4558 27.4363 25.0921 25.8383C25.7285 24.2402 26.0369 22.5321 25.9992 20.8142C25.9992 14.7658 21.9342 10.7377 18.3503 7.18089ZM6.68577 21.9896C6.28833 22.4856 5.94702 23.0234 5.66798 23.5935C5.64724 23.6387 5.61651 23.6787 5.57807 23.7104C5.53962 23.7422 5.49445 23.765 5.44592 23.7771H5.33488C5.04497 23.7771 4.71804 23.2139 4.71804 23.2139C4.63168 23.0792 4.55149 22.9384 4.4713 22.7915L4.41578 22.6752C3.66323 20.9672 4.31709 18.5369 4.31709 18.5369C4.63941 17.3524 5.16528 16.232 5.87154 15.2249C6.30303 14.5855 6.77267 13.9722 7.27794 13.3884L7.89479 14.0006L10.8063 16.9513C10.8609 17.0119 10.8911 17.0904 10.8911 17.1717C10.8911 17.253 10.8609 17.3315 10.8063 17.3921L7.76525 20.7407L6.68577 21.9896ZM13.1503 30.4438C12.2852 30.4388 11.4399 30.1862 10.7157 29.7164C9.99162 29.2465 9.41944 28.5793 9.06783 27.7948C8.71622 27.0103 8.6001 26.1418 8.73339 25.2934C8.86669 24.4451 9.24375 23.6529 9.81934 23.0119C10.7693 21.8916 11.929 20.7897 13.1873 19.3388C14.6801 20.9182 15.6547 22.0018 16.6108 23.1894C16.6857 23.281 16.7518 23.3794 16.8082 23.4833C17.3312 24.2218 17.6112 25.1028 17.6101 26.0055C17.6117 26.5877 17.4976 27.1646 17.2742 27.703C17.0508 28.2414 16.7225 28.7308 16.3082 29.1431C15.8939 29.5554 15.4017 29.8825 14.8598 30.1057C14.318 30.3289 13.737 30.4438 13.1503 30.4438V30.4438ZM21.5887 23.3486C21.56 23.4401 21.5061 23.5219 21.4331 23.5846C21.3601 23.6474 21.2708 23.6886 21.1755 23.7037H21.0891C20.9122 23.6467 20.7627 23.5268 20.6696 23.367C19.8902 22.2066 19.0066 21.1186 18.0295 20.1163L16.839 18.8919L12.8851 14.8209C12.0547 14.0574 11.2641 13.2523 10.5164 12.4089C10.498 12.3769 10.4774 12.3462 10.4547 12.3171C10.3202 12.1294 10.2142 11.9232 10.1401 11.7049C10.1401 11.6682 10.1401 11.6253 10.1401 11.5886C10.0853 11.2558 10.1128 10.9147 10.2203 10.5948C10.3277 10.2749 10.5119 9.98568 10.7569 9.75205C11.5218 8.99294 12.2929 8.22772 13.0208 7.43188C13.8227 8.31342 14.6801 9.15823 15.5252 9.99692C17.2492 11.5902 18.8092 13.3497 20.1823 15.2494C21.3416 16.8785 21.9721 18.8199 21.9897 20.8142C21.98 21.6738 21.8449 22.5274 21.5887 23.3486V23.3486Z" fill="white"/>
</svg>
